<?xml version="1.0" encoding="UTF-8" standalone="no"?>
<!-- Created with Inkscape (http://www.inkscape.org/) -->

<svg
   width="355.00211mm"
   height="355.00214mm"
   viewBox="0 0 355.00211 355.00214"
   version="1.1"
   id="svg1750"
   inkscape:version="1.1 (c4e8f9e, 2021-05-24)"
   sodipodi:docname="pole.svg"
   xmlns:inkscape="http://www.inkscape.org/namespaces/inkscape"
   xmlns:sodipodi="http://sodipodi.sourceforge.net/DTD/sodipodi-0.dtd"
   xmlns="http://www.w3.org/2000/svg"
   xmlns:svg="http://www.w3.org/2000/svg">
  <sodipodi:namedview
     id="namedview1752"
     pagecolor="#ffffff"
     bordercolor="#111111"
     borderopacity="1"
     inkscape:pageshadow="0"
     inkscape:pageopacity="0"
     inkscape:pagecheckerboard="1"
     inkscape:document-units="mm"
     showgrid="false"
     inkscape:zoom="0.47433592"
     inkscape:cx="760.00991"
     inkscape:cy="741.03602"
     inkscape:window-width="1388"
     inkscape:window-height="1004"
     inkscape:window-x="26"
     inkscape:window-y="23"
     inkscape:window-maximized="0"
     inkscape:current-layer="layer1" />
  <defs
     id="defs1747" />
  <g
     inkscape:label="Layer 1"
     inkscape:groupmode="layer"
     id="layer1"
     transform="translate(-87.058968,-74.709389)">
    <rect
       style="fill:#ffffff;fill-opacity:1;stroke:none;stroke-width:2;stroke-linejoin:round;stroke-miterlimit:4;stroke-dasharray:none;stroke-opacity:1"
       id="rect12933"
       width="354.00201"
       height="354.00214"
       x="87.558968"
       y="75.209389" />
    <path
       style="mix-blend-mode:normal;fill:#4063d8;fill-opacity:0.5;stroke-width:0.264583"
       d="m 185.76415,423.40178 c -23.09964,-0.76276 -46.77148,0.005 -69.22518,-6.02287 -10.98508,-3.46303 -18.519875,-20.89729 -19.375208,-24.79802 -4.81308,-26.09035 -3.97653,-52.90343 -4.89593,-79.35696 -0.36924,-60.99569 -2.1769,-122.08419 1.53297,-183.01101 1.6598,-12.25264 1.59236,-26.5924 11.255668,-35.714636 13.06158,-8.905303 29.80989,-7.788864 44.93153,-9.084624 32.15344,-0.888045 64.51215,-1.390641 96.49392,2.542883 11.97809,1.562392 26.3481,6.218179 29.82221,19.271237 5.88398,20.73603 1.28412,42.57362 0.19514,63.71449 -3.03905,28.18155 -1.80472,58.1143 12.33114,83.40783 17.53966,32.81047 46.32119,57.38185 68.26263,86.90163 8.73686,12.1109 17.41649,27.28298 13.0496,42.68581 -3.87932,16.73025 -20.79152,25.75507 -36.07867,30.08426 -32.32368,8.72204 -66.2233,8.25273 -99.47561,9.38351 -16.27474,0.0177 -32.5522,0.41267 -48.82421,-0.003 z"
       id="path193"
       sodipodi:nodetypes="ccccccccccccccccc" />
    <path
       style="mix-blend-mode:normal;fill:#cb3c33;fill-opacity:0.5;stroke-width:0.264583"
       d="m 412.16688,354.90536 c -5.89161,-1.10053 -11.61309,-2.94903 -16.93333,-5.78165 -5.63708,-2.33262 -10.79841,-6.01421 -16.02748,-9.20562 -7.19338,-4.72834 -13.94965,-10.05305 -20.69391,-15.46372 -11.15904,-9.05626 -21.59599,-18.97947 -31.89003,-29.24184 -20.3196,-20.91866 -39.47944,-45.27948 -44.73121,-74.7182 -4.72938,-26.01692 0.0479,-52.4623 3.92787,-78.24442 2.71135,-16.3651 4.50058,-32.87059 6.92105,-49.240961 0.41818,-2.923943 1.64652,-6.090748 4.59616,-8.191363 2.94964,-2.100615 6.43501,-2.623666 10.07401,-3.107322 20.03276,-1.82604 40.31242,-0.801061 60.44872,-1.04033 17.97158,-0.0021 36.0513,-0.299214 53.89919,1.817573 3.58854,0.42924 7.14553,1.09852 9.77866,3.796365 2.63313,2.697845 2.81096,6.296151 3.7211,9.845457 2.41464,26.332691 1.99676,52.883721 2.19818,79.322431 -0.30337,44.24434 0.7578,88.51432 -0.94204,132.73676 -0.20974,7.16633 -0.67194,14.3731 -1.46035,21.37638 -0.58793,3.49424 -0.93458,7.02791 -1.81604,10.47781 -1.22053,7.38 -7.02305,13.71867 -14.55941,14.87737 -2.11458,0.20818 -4.464,0.53449 -6.51114,-0.0148 z"
       id="path205"
       sodipodi:nodetypes="cccccccczccczcccccccc" />
    <circle
       style="fill:#cb3c33;fill-opacity:1;stroke:#000000;stroke-width:1;stroke-miterlimit:4;stroke-dasharray:none;stroke-opacity:1"
       id="path12037"
       cx="331.17453"
       cy="196.01643"
       r="8.3212042" />
    <path
       style="mix-blend-mode:normal;fill:#4063d8;fill-opacity:0.5;stroke-width:0.264583"
       d="m 199.87654,397.99679 c -69.70201,-5.74839 -84.25317,-57.25812 -89.89267,-115.184 -2.53827,-40.16726 -8.11475,-81.4111 2.35458,-120.93127 5.14394,-19.42179 17.52386,-38.14004 37.04378,-45.28277 21.81467,-8.24476 46.72586,-7.92026 68.61827,-0.13501 20.4379,6.78093 34.92828,25.45026 39.55128,46.08543 7.0369,27.82589 6.42657,57.45858 18.02381,84.14591 10.68142,28.2496 30.14427,54.37045 30.7048,85.56106 1.12039,21.21199 -11.97499,41.06092 -30.2052,51.15717 -22.957,13.15159 -50.22959,15.83582 -76.19865,14.58348 z"
       id="path195"
       sodipodi:nodetypes="cccccccccc" />
    <circle
       style="fill:#4063d8;fill-opacity:1;stroke:#000000;stroke-width:1;stroke-miterlimit:4;stroke-dasharray:none;stroke-opacity:1"
       id="path12037-3-6"
       cx="234.42328"
       cy="294.80887"
       r="8.3212042" />
    <circle
       style="fill:#4063d8;fill-opacity:1;stroke:#000000;stroke-width:1;stroke-miterlimit:4;stroke-dasharray:none;stroke-opacity:1"
       id="path12037-3"
       cx="201.49144"
       cy="203.65038"
       r="8.3212042" />
    <path
       style="mix-blend-mode:normal;fill:#4063d8;fill-opacity:0.5;stroke-width:0.264583"
       d="m 217.99646,356.94103 c -18.12653,-2.09128 -34.53895,-13.44953 -43.76398,-29.06924 -11.63334,-18.95159 -13.31921,-41.67992 -17.62554,-62.99797 -3.71231,-19.36566 -10.57817,-38.47217 -9.61651,-58.43406 0.35171,-16.3334 6.73653,-33.40045 19.9389,-43.62209 8.33167,-6.40997 18.86036,-10.38015 29.46025,-9.59078 10.32777,-0.60944 20.38659,3.78674 28.59955,9.75351 11.53518,8.61884 18.31838,21.91665 22.26425,35.47881 4.78792,17.06483 7.23686,34.86341 14.44933,51.19333 7.53343,18.17409 17.31213,36.4565 16.87327,56.67535 0.0954,7.15755 -1.74857,14.36381 -4.42267,20.95861 -6.58988,15.2364 -21.32313,25.98172 -37.45749,29.10033 -6.12909,1.26601 -12.49929,1.16735 -18.69936,0.5542 z"
       id="path197"
       sodipodi:nodetypes="ccccccccccccc" />
    <path
       style="mix-blend-mode:normal;fill:#cb3c33;fill-opacity:0.5;stroke-width:0.264583"
       d="m 387.77759,310.96735 c -22.86159,-1.80851 -42.3526,-16.14667 -59.0386,-30.80693 -22.4456,-20.05348 -40.39472,-47.59892 -41.65704,-78.42864 -1.04162,-26.32219 5.07774,-52.59261 14.55871,-77.01179 5.26368,-13.96329 15.31066,-27.400531 30.4616,-31.181344 20.92587,-5.547939 43.67422,-4.764553 64.21968,2.040859 16.72623,5.328775 27.89796,20.993315 31.79271,37.573475 8.54393,32.19937 7.94239,65.93594 7.10664,98.97323 -1.71505,22.36005 -3.2536,46.54368 -16.82542,65.35255 -7.23243,9.26446 -18.86777,14.4893 -30.61828,13.48859 z"
       id="path8322"
       sodipodi:nodetypes="sssssssssssssssssscssssssssscsssssss" />
    <path
       style="mix-blend-mode:normal;fill:#cb3c33;fill-opacity:0.5;stroke-width:0.264583"
       d="m 354.02998,264.80803 c -8.86886,-0.77915 -17.44904,-3.75025 -25.19749,-8.06904 -11.92957,-6.76245 -21.92886,-16.92372 -28.30594,-29.06918 -4.86679,-9.35177 -7.71754,-19.84118 -7.44544,-30.42378 -0.3984,-10.7504 2.39311,-21.45636 6.63241,-31.27361 3.61145,-7.96323 8.5773,-15.43789 15.01497,-21.37885 2.27839,-1.92866 4.15735,-4.15637 6.84192,-5.58926 3.47811,-2.25018 7.19116,-4.30459 11.06176,-5.76357 8.84701,-2.95745 18.49686,-4.18582 27.64666,-1.90337 6.96947,1.47098 13.63408,4.28427 19.40002,8.49029 9.48901,6.83719 16.65967,16.58188 20.98542,27.40695 3.76431,9.13332 5.83121,18.98267 6.48875,28.82505 0.047,8.54903 0.19063,17.19796 -2.03364,25.52832 -1.11802,5.06587 -2.7645,9.97916 -4.83272,14.71737 -3.24551,7.37876 -8.5285,13.59776 -14.4426,18.98881 -5.72513,4.6188 -12.67224,7.72924 -19.96506,8.78033 -3.83402,1.02364 -7.91477,1.03058 -11.84902,0.73354 z"
       id="path203"
       sodipodi:nodetypes="ccccccccccccccccc" />
  </g>
</svg>
