<?xml version="1.0" encoding="UTF-8" standalone="no"?>
<!-- Created with Inkscape (http://www.inkscape.org/) -->

<svg
   width="80.5mm"
   height="80.5mm"
   viewBox="0 0 80.5 80.5"
   version="1.1"
   id="svg129211"
   xmlns="http://www.w3.org/2000/svg"
   xmlns:svg="http://www.w3.org/2000/svg">
  <defs
     id="defs129208" />
  <g
     id="layer1"
     transform="translate(-44.534325,-57.702233)">
    <circle
       style="opacity:1;fill:none;fill-opacity:1;stroke:#000000;stroke-width:0.499999;stroke-miterlimit:4;stroke-dasharray:none;stroke-opacity:1"
       id="path132901"
       cx="84.784325"
       cy="97.952232"
       r="40" />
    <path
       id="path132901-6-5"
       style="fill:none;stroke:#000000;stroke-width:0.5;stroke-miterlimit:4;stroke-dasharray:none"
       d="m 104.59327,97.766787 c 0.002,0.112389 0.003,0.224999 0.003,0.337831 h -1.8e-4 c 0,4.995302 -1.84426,9.559842 -4.88901,13.049902 l 14.33855,12.42626 c -2.79988,3.20936 -6.1191,5.95389 -9.82666,8.10256 L 94.679867,115.2997 c -2.924241,1.69471 -6.320692,2.66488 -9.943741,2.66488 -1.266521,0 -2.505359,-0.11856 -3.706008,-0.34518 l -3.492239,18.59824 c -4.316926,-0.81481 -8.381329,-2.34431 -12.065566,-4.46085 l 9.38519,-16.41952 c -4.106455,-2.35911 -7.289726,-6.1438 -8.874494,-10.67875 l -17.857611,6.22457 c -1.401604,-4.01082 -2.163541,-8.32186 -2.163541,-12.81087 l 18.914308,0.0324 c 0,-5.003503 1.850315,-9.574842 4.90402,-13.06709 L 55.547709,72.530065 c 2.808017,-3.211278 6.136597,-5.955763 9.854091,-8.101805 l 9.419631,16.464473 c 2.91768,-1.684324 6.303638,-2.648078 9.914695,-2.648078 1.301514,0 2.57379,0.125197 3.805431,0.364205 l 3.678889,-18.644871 c 4.32634,0.839552 8.396224,2.397521 12.080494,4.544747 l -9.579138,16.425167 c 4.096673,2.387579 7.261398,6.199265 8.815708,10.7566 l 17.99543,-6.155911 c 1.27398,3.735407 1.99448,7.72709 2.0637,11.877271 z" />
    <path
       id="path194102"
       style="opacity:1;fill:#f46f6f;fill-opacity:0.5;stroke:#f46f6f;stroke-width:0.5;stroke-opacity:1"
       d="m 99.137373,95.618363 c 0.488517,2.850967 -0.553862,8.570567 -0.498169,12.952447 0.07583,5.96638 -2.496947,8.63205 -2.60911,7.28971 -0.202449,-2.42287 -0.749392,-3.96294 -3.420498,-4.10986 -2.671106,-0.14693 -6.729945,2.18833 -12.613687,-0.0219" />
    <path
       id="path169808"
       style="opacity:1;fill:#c56ff4;fill-opacity:0.5;stroke:#c56ff4;stroke-width:0.5"
       d="m 75.646507,86.719803 c 2.224751,-1.848552 7.54662,-3.88781 11.3136,-6.126986 5.129118,-3.04886 8.724048,-2.153605 7.617629,-1.385299 -1.997041,1.38676 -3.05731,2.630462 -1.849001,5.017172 1.208309,2.38671 5.302666,4.776672 6.330402,10.977269" />
    <path
       id="path198504"
       style="opacity:1;fill:#6f85f4;fill-opacity:0.5;stroke:#6f84f4;stroke-width:0.5;stroke-opacity:1"
       d="m 80.001899,111.7395 c -2.713269,-1.00242 -7.374978,-4.88116 -11.197644,-7.02387 -5.204952,-2.91752 -6.227101,-6.478447 -5.008519,-5.904407 2.199491,1.03611 3.806702,1.332477 5.269492,-0.90731 1.462798,-2.23978 1.650294,-7.133018 6.50628,-11.123374" />
    <circle
       style="fill:#ffffff;fill-opacity:1;stroke:#000000;stroke-width:0.5;stroke-miterlimit:4;stroke-dasharray:none;stroke-dashoffset:0;stroke-opacity:1"
       id="path132901-1"
       r="14.542631"
       cy="98.004074"
       cx="84.798943" />
  </g>
</svg>
