<?xml version="1.0" encoding="UTF-8" standalone="no"?>
<!-- Created with Inkscape (http://www.inkscape.org/) -->

<svg
   width="340.49387mm"
   height="274.35504mm"
   viewBox="0 0 340.49387 274.35504"
   version="1.1"
   id="svg834"
   inkscape:version="1.1 (c4e8f9e, 2021-05-24)"
   sodipodi:docname="pole-2.svg"
   xmlns:inkscape="http://www.inkscape.org/namespaces/inkscape"
   xmlns:sodipodi="http://sodipodi.sourceforge.net/DTD/sodipodi-0.dtd"
   xmlns="http://www.w3.org/2000/svg"
   xmlns:svg="http://www.w3.org/2000/svg">
  <sodipodi:namedview
     id="namedview836"
     pagecolor="#ffffff"
     bordercolor="#111111"
     borderopacity="1"
     inkscape:pageshadow="0"
     inkscape:pageopacity="0"
     inkscape:pagecheckerboard="1"
     inkscape:document-units="mm"
     showgrid="false"
     inkscape:zoom="0.47433592"
     inkscape:cx="755.79349"
     inkscape:cy="1292.3331"
     inkscape:window-width="1440"
     inkscape:window-height="2523"
     inkscape:window-x="0"
     inkscape:window-y="0"
     inkscape:window-maximized="1"
     inkscape:current-layer="g1163" />
  <defs
     id="defs831" />
  <g
     inkscape:label="Layer 1"
     inkscape:groupmode="layer"
     id="layer1"
     transform="translate(77.845634,10.104174)">
    <g
       id="g1163"
       transform="translate(0.28913706,0.51513683)">
      <path
         style="fill:#cb3c33;fill-opacity:0.501961;stroke:#cb3c33;stroke-width:2;stroke-miterlimit:4;stroke-dasharray:none;stroke-opacity:0.501961"
         d="m 190.37241,193.83483 c -5.30137,-0.35281 -9.10596,-1.40111 -15.08125,-4.15541 -5.94862,-2.74202 -13.65444,-7.95615 -21.03437,-14.23289 -1.38245,-1.17579 -3.04932,-2.5442 -3.70417,-3.0409 -2.52991,-1.91893 -17.2279,-16.24593 -21.79389,-21.24379 C 106.78926,127.11444 97.400523,108.8815 94.467016,84.567309 93.411397,75.817879 93.51491,62.873155 94.73043,51.626682 c 0.41842,-3.871396 1.594048,-10.433719 2.251482,-12.567708 0.336235,-1.091407 0.927727,-3.165031 1.314421,-4.608053 0.450077,-1.679554 1.35436,-3.916984 2.512947,-6.217708 2.29896,-4.565254 4.88678,-7.521444 8.13642,-9.294635 1.12844,-0.615741 2.34937,-1.3205 2.71317,-1.566132 0.99624,-0.672643 6.09603,-2.395807 7.08222,-2.393009 0.47548,0.0014 2.02329,-0.25087 3.43959,-0.560485 2.36182,-0.516321 3.08997,-0.550088 8.79277,-0.40776 8.14931,0.203385 14.19075,0.951461 21.69584,2.686468 39.84845,9.212059 73.65749,34.851396 88.44891,67.075899 3.9379,8.579096 6.14537,16.017669 7.73404,26.061481 0.586,3.70493 0.82333,14.30451 0.41285,18.43957 -1.43626,14.46826 -6.24189,27.95544 -13.93436,39.10731 -4.95429,7.18231 -12.56757,14.7614 -18.96964,18.88445 -6.37821,4.10771 -13.82843,6.93026 -19.63868,7.44021 -1.01864,0.0894 -2.20927,0.19842 -2.64583,0.24225 -0.43656,0.0438 -2.10344,-0.007 -3.70417,-0.114 z"
         id="path1177"
         sodipodi:nodetypes="cssssssssssssssssssssssc" />
      <path
         style="fill:#4063d8;fill-opacity:0.501961;stroke:#4063d8;stroke-width:2;stroke-miterlimit:4;stroke-dasharray:none;stroke-opacity:0.501961"
         d="M 59.587929,245.58531 C 43.491505,244.79882 26.28139,240.49653 11.30147,233.51434 -23.432435,217.32476 -49.782623,185.50966 -59.45923,148.0782 -68.044817,114.86704 -62.336261,82.713939 -43.37719,57.497101 -25.264889,33.406526 5.0313855,17.931125 34.055637,17.944248 c 17.326706,0.0078 28.881925,6.23922 35.322149,19.048184 3.567504,7.095416 5.486897,15.469764 8.216897,35.850503 2.851597,21.288516 5.827191,32.103515 12.621572,45.873905 3.109685,6.30249 7.677591,13.8134 17.012505,27.97327 4.35718,6.60928 8.91228,13.71201 10.12244,15.78382 9.33993,15.99017 13.39748,27.76525 13.40734,38.9084 0.009,9.67445 -4.10704,19.43991 -11.01935,26.14657 -9.8944,9.60005 -24.747465,15.60494 -43.388681,17.54146 -3.863343,0.40134 -13.21077,0.68849 -16.76258,0.51495 z"
         id="path1175"
         sodipodi:nodetypes="sssscssssscsss" />
      <path
         style="opacity:1;fill:#cb3c33;fill-opacity:0.501961;stroke:#cb3c33;stroke-width:2;stroke-miterlimit:4;stroke-dasharray:none;stroke-opacity:0.501961"
         d="m 167.48596,151.21097 c -5.44589,-0.54637 -13.22483,-3.03903 -19.57917,-6.27389 -7.81962,-3.98079 -13.09593,-7.84914 -19.72087,-14.45841 -11.95559,-11.92732 -18.52624,-24.87299 -20.81817,-41.016569 -0.44252,-3.116927 -0.43137,-13.606305 0.0174,-16.404168 1.39646,-8.705514 2.74896,-12.990346 6.05486,-19.182292 4.67468,-8.755672 11.21158,-14.337179 20.8407,-17.794757 5.22567,-1.876404 7.31723,-2.175354 15.21354,-2.17448 6.2055,7.93e-4 7.37643,0.07044 10.18646,0.606835 12.65827,2.416278 23.75255,7.53055 33.56737,15.473969 6.15567,4.981961 10.69428,9.837095 14.64136,15.662392 7.24191,10.688011 10.74277,20.84105 11.45495,33.22123 0.24603,4.27694 0.17833,5.69217 -0.54367,11.36109 -1.07468,8.43821 -5.74384,18.73607 -11.69659,25.79687 -4.46855,5.30032 -11.75618,10.41337 -18.1314,12.72111 -2.90724,1.05237 -7.23699,2.08338 -10.43131,2.48391 -2.51386,0.31521 -7.79478,0.3043 -11.0555,-0.0228 z"
         id="path1173"
         sodipodi:nodetypes="cssscsscsssssssscc" />
      <path
         d="m 154.10923,117.93206 c -4.96792,-0.46171 -10.5694,-2.61013 -14.4048,-5.52487 -10.0295,-7.622 -14.20209,-20.508842 -10.37287,-32.03607 2.28345,-6.873967 7.2769,-12.505454 13.73392,-15.488782 7.15216,-3.304501 16.18111,-3.065363 23.54327,0.623564 3.92569,1.967021 7.97185,5.410325 10.76864,9.164153 8.25278,11.076829 7.18035,26.726935 -2.46982,36.041575 -5.60891,5.41388 -12.92142,7.95252 -20.79834,7.22043 z"
         style="fill:#cb3c33;fill-opacity:0.501961;stroke:#cb3c33;stroke-width:2;stroke-miterlimit:4;stroke-dasharray:none;stroke-opacity:0.501961"
         id="path5195" />
      <path
         style="fill:#000000;stroke:#000000;stroke-width:2.07151;stroke-miterlimit:4;stroke-dasharray:none;stroke-opacity:1"
         d="m 83.415826,262.55963 c -26.272831,-1.24477 -50.55987,-6.85719 -73.4219917,-16.96689 -5.56784,-2.4621 -17.533118,-8.85942 -22.3571763,-11.95339 -8.018812,-5.14298 -15.149891,-10.55007 -22.092709,-16.75163 -4.478919,-4.00074 -12.994423,-13.14981 -16.754769,-18.00137 -32.768142,-42.27713 -34.570889,-94.88108 -4.740235,-138.319539 3.862223,-5.624047 7.306601,-9.857616 12.873778,-15.823494 7.791284,-8.349261 14.460411,-14.164392 23.834768,-20.782663 C 5.2344713,6.6799768 35.465833,-4.5283805 67.805406,-8.3126033 c 9.38332,-1.0979833 12.95092,-1.282191 24.60625,-1.2704548 12.314694,0.012444 17.287294,0.3211056 27.516674,1.7082793 53.88341,7.30696518 99.78298,34.7284728 123.9514,74.0515618 7.95715,12.946642 13.43966,27.252319 15.8706,41.411697 1.21558,7.08021 1.55832,11.17279 1.57247,18.77658 0.0138,7.43393 -0.21759,10.49568 -1.31566,17.40519 -7.26789,45.73232 -42.75511,85.31995 -94.57036,105.49755 -22.73363,8.8528 -49.19214,13.63902 -74.215744,13.42529 -3.34698,-0.0285 -6.85932,-0.0886 -7.80521,-0.13346 z m 19.050004,-0.3801 c 30.18577,-1.64808 57.34406,-8.90963 82.15313,-21.96602 25.5079,-13.42416 45.27526,-31.28731 58.82,-53.15374 8.3485,-13.4777 13.91454,-28.25675 16.30359,-43.28952 1.09808,-6.90951 1.32951,-9.97126 1.31567,-17.40519 -0.0246,-13.28543 -1.93926,-24.45066 -6.32981,-36.914977 C 243.84112,58.542436 219.99364,31.967933 187.00021,13.97704 163.90846,1.3854036 138.27221,-6.1303684 109.345,-8.7891016 102.51325,-9.4170127 83.144806,-9.506869 76.668946,-8.9406859 47.193918,-6.363688 22.535954,0.61021007 -0.85396672,12.984758 -17.395889,21.736345 -30.876347,31.953247 -42.944702,44.885546 c -5.443815,5.833519 -8.900139,10.087213 -12.74177,15.681265 -25.927703,37.755096 -28.150976,82.947719 -6.012005,122.206439 5.088151,9.02275 11.048759,17.07632 18.762924,25.35119 11.911733,12.77754 24.879708,22.60893 41.5524193,31.50208 13.2249737,7.05414 25.3511557,11.84811 39.8197927,15.74235 20.519906,5.52297 43.277637,7.94366 64.029171,6.81066 z"
         id="path1165"
         sodipodi:nodetypes="csssssssscssssssscssssccssssscsssss" />
      <path
         d="m 59.210969,233.64546 c 9.993098,-0.64562 17.907248,-2.9929 25.610108,-7.59579 10.37262,-6.19821 17.347403,-15.72688 19.652353,-26.84825 0.92705,-4.47297 1.16547,-11.5499 0.52401,-15.55359 -1.54222,-9.62581 -4.52529,-17.64167 -10.356453,-27.82893 -2.76782,-4.83549 -4.1444,-7.02004 -10.39027,-16.48878 -6.35069,-9.62763 -7.62183,-11.68274 -9.92927,-16.05312 -6.299,-11.93056 -8.33232,-19.16144 -11.55642,-41.096892 -2.01207,-13.68928 -4.087477,-21.19732 -7.922954,-28.66225 -2.066176,-4.02139 -3.687659,-6.3306 -6.568998,-9.35519 -4.602599,-4.83143 -9.997747,-8.18274 -16.451,-10.21889 -4.783641,-1.50935 -6.658301,-1.75092 -13.626042,-1.7559 -6.910901,-0.005 -9.0047214,0.27755 -14.5233604,1.9594 -14.4234456,4.39567 -26.3177946,14.50412 -33.1693466,28.18908 -4.943012,9.87293 -6.983216,19.8724 -6.600973,32.352778 0.234947,7.671224 1.264812,14.821594 3.533421,24.532654 1.449329,6.20404 9.484495,36.07494 12.028061,44.71458 6.783115,23.03997 14.4725016,37.20657 26.7333676,49.25242 5.5586204,5.46114 11.4611154,9.68229 18.2386124,13.04329 9.176751,4.55079 18.182016,6.98687 27.759176,7.50932 0.800368,0.0437 1.7549,0.10141 2.121183,0.12833 0.366284,0.0269 2.568943,-0.074 4.894795,-0.22427 z"
         style="fill:#4063d8;fill-opacity:0.501961;stroke:#4063d8;stroke-width:2;stroke-miterlimit:4;stroke-dasharray:none;stroke-opacity:0.501961"
         id="path4527"
         sodipodi:nodetypes="ssssssssssscssssssssss" />
      <path
         d="m 58.809581,223.17956 c 15.23708,-2.6172 26.76592,-13.87062 29.5213,-28.81609 0.58315,-3.16307 0.39174,-10.5274 -0.36448,-14.02292 -1.15815,-5.35332 -3.07199,-10.28323 -5.9365,-15.29197 -4.84275,-8.46778 -10.49666,-14.81261 -23.88616,-26.80515 -7.0292,-6.29583 -9.58151,-8.90737 -11.60847,-11.87788 -3.92126,-5.74661 -4.53517,-7.81875 -4.50728,-15.21355 0.0173,-4.58 0.1416,-6.00615 1.10716,-12.700014 1.64268,-11.388073 1.73478,-12.372603 1.74492,-18.653128 0.0177,-10.95217 -1.8673,-18.21528 -6.59194,-25.4 -8.76633,-13.33089 -26.06061,-17.82407 -40.8618884,-10.61622 -3.200323,1.55848 -5.833999,3.39933 -8.5358846,5.96629 -9.651707,9.16975 -13.335072,22.56012 -10.121898,36.796815 0.83347,3.69288 1.960086,6.849723 3.855887,10.804443 1.92514,4.015924 3.418057,6.504684 6.776257,11.296284 2.4404056,3.48206 3.5468456,4.93627 7.2409766,9.517 0.821489,1.01864 1.838944,2.38786 2.261008,3.0427 0.42206303,0.65484 1.22676703,1.78169 1.78823403,2.50411 1.57178597,2.02235 3.45885697,6.04084 4.41522797,9.40214 0.815033,2.86455 0.873099,3.35254 0.991727,8.33438 0.100322,4.21322 0.01458,6.31619 -0.420764,10.31875 -1.238927,11.39098 -1.370761,19.22517 -0.451919,26.8552 0.503759,4.18319 0.764829,5.4707 1.904558,9.39272 4.1416924,14.25227 12.7582484,25.0009 24.8859884,31.0437 5.23805,2.60992 9.74927,3.90494 16.2106,4.6535 1.81164,0.20988 8.10931,-0.10616 10.58334,-0.53111 z"
         style="opacity:1;fill:#4063d8;fill-opacity:0.501961;stroke:#4063d8;stroke-width:2;stroke-miterlimit:4;stroke-dasharray:none;stroke-opacity:0.501961"
         id="path7418"
         sodipodi:nodetypes="ssssssssssscssssssssssssss" />
      <ellipse
         style="fill:#cb3c33;fill-opacity:1;stroke:#000000;stroke-width:2;stroke-miterlimit:4;stroke-dasharray:none;stroke-opacity:1"
         id="path12037"
         cx="152.98799"
         cy="90.786057"
         rx="11.79148"
         ry="11.791478" />
      <ellipse
         style="fill:#4063d8;fill-opacity:1;stroke:#000000;stroke-width:2;stroke-miterlimit:4;stroke-dasharray:none;stroke-opacity:1"
         id="path12037-3-6"
         cx="48.84668"
         cy="176.82462"
         rx="11.791478"
         ry="11.79148" />
      <ellipse
         style="fill:#4063d8;fill-opacity:1;stroke:#000000;stroke-width:2;stroke-miterlimit:4;stroke-dasharray:none;stroke-opacity:1"
         id="path12037-3"
         cx="15.914847"
         cy="85.666145"
         rx="11.79148"
         ry="11.791478" />
    </g>
  </g>
</svg>
